<mxfile host="app.diagrams.net" modified="2023-05-07T22:03:23.534Z" agent="Mozilla/5.0 (Windows NT 10.0; Win64; x64) AppleWebKit/537.36 (KHTML, like Gecko) Chrome/112.0.0.0 Safari/537.36" version="21.2.9" etag="lv7TG8VWXeP6CHPle3Xl" type="github">
  <diagram name="Page-1" id="xRrda4--gjerIPMOhVYG">
    <mxGraphModel>
      <root>
        <mxCell id="0" />
        <mxCell id="1" parent="0" />
      </root>
    </mxGraphModel>
  </diagram>
</mxfile>
